<?xml version="1.0" encoding="iso-8859-1"?>
<!-- Generator: Adobe Illustrator 19.0.0, SVG Export Plug-In . SVG Version: 6.00 Build 0)  -->
<svg version="1.1" id="Capa_1" xmlns="http://www.w3.org/2000/svg" xmlns:xlink="http://www.w3.org/1999/xlink" x="0px" y="0px"
	 viewBox="0 0 512 512" style="enable-background:new 0 0 512 512;" xml:space="preserve">
<linearGradient id="SVGID_1_" gradientUnits="userSpaceOnUse" x1="0" y1="258" x2="512.0002" y2="258" gradientTransform="matrix(1 0 0 -1 0 514.0001)">
	<stop  offset="0" style="stop-color:#00F2FE"/>
	<stop  offset="0.021" style="stop-color:#03EFFE"/>
	<stop  offset="0.293" style="stop-color:#24D2FE"/>
	<stop  offset="0.554" style="stop-color:#3CBDFE"/>
	<stop  offset="0.796" style="stop-color:#4AB0FE"/>
	<stop  offset="1" style="stop-color:#4FACFE"/>
</linearGradient>
<path style="fill:url(#SVGID_1_);" d="M506.096,264.697c-3.901,3.875-8.999,5.812-14.096,5.812c-5.141,0-10.279-1.969-14.188-5.904
	L462,248.688v72.82c0,11.046-8.954,20-20,20s-20-8.954-20-20V208.425L269.893,55.315c-7.464-6.394-18.454-6.418-25.947-0.055
	L89.991,208.911c0.006,0.198,0.009,0.397,0.009,0.597v212c0,22.056,17.944,40,40,40h52v-163c0-11.046,8.954-20,20-20h110
	c11.046,0,20,8.954,20,20v163h50c22.056,0,40-17.944,40-40c0-11.046,8.954-20,20-20s20,8.954,20,20c0,44.112-35.888,80-80,80h-70
	c-11.046,0-20-8.954-20-20v-163h-70v163c0,11.046-8.954,20-20,20h-72c-44.112,0-80-35.888-80-80V248.824l-15.872,15.841
	c-7.817,7.802-20.48,7.79-28.284-0.028c-7.803-7.818-7.79-20.481,0.028-28.285L216.161,26.477c0.269-0.268,0.545-0.529,0.829-0.782
	c22.842-20.335,57.227-20.262,79.982,0.169c0.282,0.254,0.559,0.516,0.826,0.786l208.39,209.763
	C513.974,244.249,513.932,256.912,506.096,264.697z"/>
<g>
</g>
<g>
</g>
<g>
</g>
<g>
</g>
<g>
</g>
<g>
</g>
<g>
</g>
<g>
</g>
<g>
</g>
<g>
</g>
<g>
</g>
<g>
</g>
<g>
</g>
<g>
</g>
<g>
</g>
</svg>
