<svg enable-background="new 0 0 24 24" height="512" viewBox="0 0 24 24" width="512" xmlns="http://www.w3.org/2000/svg"><path d="m12 .75c-6.204 0-11.25 5.046-11.25 11.25s5.046 11.25 11.25 11.25 11.25-5.046 11.25-11.25-5.046-11.25-11.25-11.25z" fill="#f44336"/><path d="m16.934 12.328-4.439 4.498c-.128.13-.308.204-.495.204s-.367-.074-.495-.204l-4.439-4.498c-1.26-1.276-1.26-3.353 0-4.63 1.247-1.264 3.443-1.264 4.689 0l.245.247.245-.248c1.247-1.264 3.443-1.264 4.689 0 1.26 1.277 1.26 3.354 0 4.631z" fill="#eceff1"/><path d="m12 24c-6.617 0-12-5.383-12-12s5.383-12 12-12 12 5.383 12 12-5.383 12-12 12zm0-22.5c-5.79 0-10.5 4.71-10.5 10.5s4.71 10.5 10.5 10.5 10.5-4.71 10.5-10.5-4.71-10.5-10.5-10.5z"/><path d="m12 18c-.207 0-.405-.086-.547-.237l-4.903-5.235c-1.392-1.485-1.392-3.902 0-5.388 1.377-1.471 3.803-1.471 5.18 0l.27.289.271-.288c1.377-1.471 3.803-1.471 5.18 0 1.392 1.485 1.392 3.902 0 5.388l-4.903 5.234c-.143.151-.341.237-.548.237zm-2.86-10.5c-.562 0-1.094.236-1.496.666-.861.92-.861 2.417 0 3.337l4.356 4.65 4.356-4.65c.861-.92.861-2.417 0-3.337-.805-.859-2.188-.859-2.992 0l-.817.872c-.283.303-.811.303-1.094 0l-.817-.872c-.403-.43-.934-.666-1.496-.666z"/></svg>