<svg id="Layer_3" enable-background="new 0 0 64 64" height="512" viewBox="0 0 64 64" width="512" xmlns="http://www.w3.org/2000/svg"><g><path d="m46 62h-44v-60h36v8h8z" fill="#3c98f4"/><g><path d="m19 35h16v2h-16z" fill="#e5ebf0"/></g><g><path d="m19 47h15v2h-15z" fill="#e5ebf0"/></g><g><path d="m19 51h15v2h-15z" fill="#e5ebf0"/></g><path d="m55 46h-3l-5 6-5-6h-3c-3.866 0-7 3.134-7 7v9h30v-9c0-3.866-3.134-7-7-7z" fill="#c7e2fb"/><path d="m52 46-5 6-5-6h-3c-3.866 0-7 3.134-7 7v4.747c1.307.164 2.641.253 4 .253 9.595 0 18.059-4.225 23.104-10.662-1.154-.838-2.569-1.338-4.104-1.338z" fill="#ebf7fe"/><path d="m38.025 46.076 2.975 8.924 6-3-5-6h-3.001c-.331 0-.655.031-.974.076z" fill="#4472b0"/><g><path d="m47 52-2.8 1.4 1.8 3.6h2l1.8-3.6z" fill="#2d4d81"/></g><path d="m55.975 46.076c-.319-.045-.643-.076-.974-.076h-3.001l-5 6 6 3z" fill="#4472b0"/><path d="m47 44c-1.851 0-3.57-.56-5-1.518v3.518l5 6 5-6v-3.518c-1.43.958-3.149 1.518-5 1.518z" fill="#efbe9c"/><path d="m50 62-2-5h-2l-2 5z" fill="#4472b0"/><path d="m56 33v2c0 4.971-4.029 9-9 9-4.971 0-9-4.029-9-9v-2h6c1.889 0 3.667-.889 4.8-2.4l1.2-1.6 1.2 1.6c1.133 1.511 2.911 2.4 4.8 2.4z" fill="#efbe9c"/><path d="m38 35v-2h-1.5c-1.381 0-2.5 1.119-2.5 2.5s1.119 2.5 2.5 2.5h2.023c-.333-.94-.523-1.946-.523-3z" fill="#efbe9c"/><g><path d="m47 20c-5.523 0-10 4.477-10 10v3h1 6c1.889 0 3.667-.889 4.8-2.4l1.2-1.6 1.2 1.6c1.133 1.511 2.911 2.4 4.8 2.4h1v-3c0-5.523-4.477-10-10-10z" fill="#976949"/></g><path d="m57.5 33h-1.5v2c0 1.054-.19 2.06-.523 3h2.023c1.381 0 2.5-1.119 2.5-2.5s-1.119-2.5-2.5-2.5z" fill="#efbe9c"/><g fill="#8ac1f8"><path d="m46 10-8-8v8z"/><path d="m6 10h8v8h-8z"/><path d="m6 22h8v8h-8z"/><path d="m6 34h8v8h-8z"/><path d="m6 46h8v8h-8z"/></g><g><path d="m7.343 10h11.314v2h-11.314z" fill="#e5ebf0" transform="matrix(.707 -.707 .707 .707 -3.971 12.414)"/></g><g><path d="m7.343 22h11.314v2h-11.314z" fill="#e5ebf0" transform="matrix(.707 -.707 .707 .707 -12.456 15.929)"/></g><g><path d="m7.343 34h11.314v2h-11.314z" fill="#e5ebf0" transform="matrix(.707 -.707 .707 .707 -20.941 19.444)"/></g><g><path d="m7.343 46h11.314v2h-11.314z" fill="#e5ebf0" transform="matrix(.707 -.707 .707 .707 -29.426 22.958)"/></g><g><path d="m19 11h16v2h-16z" fill="#e5ebf0"/></g><g><path d="m19 15h16v2h-16z" fill="#e5ebf0"/></g><g><path d="m19 23h16v2h-16z" fill="#e5ebf0"/></g><g><path d="m19 27h16v2h-16z" fill="#e5ebf0"/></g><g><path d="m19 39h16v2h-16z" fill="#e5ebf0"/></g></g></svg>