<?xml version="1.0" encoding="utf-8"?>
<!-- Generator: Adobe Illustrator 19.0.0, SVG Export Plug-In . SVG Version: 6.00 Build 0)  -->
<svg xmlns="http://www.w3.org/2000/svg" xmlns:xlink="http://www.w3.org/1999/xlink" version="1.1" id="Layer_1" x="0px" y="0px" viewBox="0 2 98 98" style="enable-background:new 0 2 98 98;" xml:space="preserve" width="512" height="512">
<style type="text/css">
	.st0{fill:url(#SVGID_1_);}
	.st1{fill:url(#SVGID_2_);}
</style>
<g>
	<linearGradient id="SVGID_1_" gradientUnits="userSpaceOnUse" x1="49" y1="9.3333" x2="49" y2="94.6829">
		<stop offset="0" style="stop-color:#00EFD1"/>
		<stop offset="1" style="stop-color:#00ACEA"/>
	</linearGradient>
	<path class="st0" d="M49,67c7.9,0,14.4-6.4,14.4-14.3V24.3c0-7.9-6.5-14.4-14.4-14.4s-14.4,6.5-14.4,14.4v28.3   C34.6,60.5,41.1,67,49,67z M40.6,24.3c0-4.6,3.8-8.4,8.4-8.4c4.6,0,8.4,3.8,8.4,8.4v28.4c0,4.6-3.8,8.3-8.4,8.3   c-4.6,0-8.4-3.8-8.4-8.4V24.3z"/>
	<linearGradient id="SVGID_2_" gradientUnits="userSpaceOnUse" x1="49" y1="9.3333" x2="49" y2="94.6829">
		<stop offset="0" style="stop-color:#00EFD1"/>
		<stop offset="1" style="stop-color:#00ACEA"/>
	</linearGradient>
	<path class="st1" d="M71.7,47.6c-1.7,0-3,1.3-3,3V53c0,10.9-8.8,19.7-19.7,19.7S29.3,63.9,29.3,53v-2.4c0-1.7-1.3-3-3-3s-3,1.3-3,3   V53c0,13.2,9.9,24,22.7,25.5v7.6h-4.9c-1.7,0-3,1.3-3,3c0,1.7,1.3,3,3,3h15.8c1.7,0,3-1.3,3-3c0-1.7-1.3-3-3-3H52v-7.6   C64.8,77,74.7,66.2,74.7,53v-2.4C74.7,48.9,73.4,47.6,71.7,47.6z"/>
</g>
</svg>
